<svg xmlns="http://www.w3.org/2000/svg" height="971.277" viewBox="0 0 706.935 971.277" width="706.935"><path d="m1155.607 2097.339-435.772 411.753s-25.231 21.3-40.362 49.666-12.859 80.32-12.859 80.32v74.42s-.428 50.724 13.77 81.122 43.02 40.469 43.02 40.469l444.97 233.527-8.152-380.2z" fill="#f5f9fc" opacity=".5" transform="translate(-461.438 -2097.339)"></path><g opacity=".5"><g opacity=".25" transform="translate(0 198.173)"><path d="m0 20.026c0 10.73 8.675 19.491 19.581 20.026v-7.737a12.5 12.5 0 0 1 -11.643-12.289 12.5 12.5 0 0 1 11.643-12.287v-7.739a20.316 20.316 0 0 0 -19.581 20.026" fill="none" transform="translate(25.812 179.792)"></path><path d="m0 20.026c0 10.73 8.675 19.491 19.581 20.026v-7.737a12.5 12.5 0 0 1 -11.643-12.289 12.5 12.5 0 0 1 11.643-12.287v-7.739a20.316 20.316 0 0 0 -19.581 20.026" fill="#446ab2" transform="translate(25.812 179.792)"></path><path d="m9.354 4.1a12.345 12.345 0 0 1 .818 4.426 12.314 12.314 0 0 1 -10.172 12.158v7.8a19.98 19.98 0 0 0 17.8-19.958 20.172 20.172 0 0 0 -1.879-8.526z" fill="none" transform="translate(48.063 191.363)"></path><path d="m9.354 4.1a12.345 12.345 0 0 1 .818 4.426 12.314 12.314 0 0 1 -10.172 12.158v7.8a19.98 19.98 0 0 0 17.8-19.958 20.172 20.172 0 0 0 -1.879-8.526z" fill="#446ab2" transform="translate(48.063 191.363)"></path><path d="m0 7.586a12.1 12.1 0 0 1 7.811 4.875l6.43-3.953a19.6 19.6 0 0 0 -14.241-8.508z" fill="none" transform="translate(48.063 179.792)"></path><path d="m0 7.586a12.1 12.1 0 0 1 7.811 4.875l6.43-3.953a19.6 19.6 0 0 0 -14.241-8.508z" fill="#446ab2" transform="translate(48.063 179.792)"></path><path d="m50.332.422-12.832 14.994-16.468-12.416-20.632 18.649a1.229 1.229 0 0 0 -.1 1.722 1.2 1.2 0 0 0 .9.407 1.2 1.2 0 0 0 .8-.31l19.17-17.322 16.688 12.58 14.3-16.708a1.229 1.229 0 0 0 -.125-1.718 1.191 1.191 0 0 0 -.788-.3 1.2 1.2 0 0 0 -.913.422" fill="none" transform="translate(561.754 261.423)"></path><path d="m50.332.422-12.832 14.994-16.468-12.416-20.632 18.649a1.229 1.229 0 0 0 -.1 1.722 1.2 1.2 0 0 0 .9.407 1.2 1.2 0 0 0 .8-.31l19.17-17.322 16.688 12.58 14.3-16.708a1.229 1.229 0 0 0 -.125-1.718 1.191 1.191 0 0 0 -.788-.3 1.2 1.2 0 0 0 -.913.422" fill="#446ab2" transform="translate(561.754 261.423)"></path><path d="m0 4.546a4.545 4.545 0 0 0 4.546 4.545 4.545 4.545 0 0 0 4.545-4.545 4.545 4.545 0 0 0 -4.545-4.546 4.545 4.545 0 0 0 -4.546 4.546" fill="none" transform="translate(558.957 278.207)"></path><path d="m0 4.546a4.545 4.545 0 0 0 4.546 4.545 4.545 4.545 0 0 0 4.545-4.545 4.545 4.545 0 0 0 -4.545-4.546 4.545 4.545 0 0 0 -4.546 4.546" fill="#446ab2" transform="translate(558.957 278.207)"></path><path d="m0 2.448a2.45 2.45 0 0 0 2.448 2.452 2.45 2.45 0 0 0 2.452-2.452 2.45 2.45 0 0 0 -2.452-2.448 2.45 2.45 0 0 0 -2.448 2.448" fill="none" transform="translate(561.055 280.305)"></path><path d="m0 2.448a2.45 2.45 0 0 0 2.448 2.452 2.45 2.45 0 0 0 2.452-2.452 2.45 2.45 0 0 0 -2.452-2.448 2.45 2.45 0 0 0 -2.448 2.448" fill="#446ab2" transform="translate(561.055 280.305)"></path><path d="m0 4.546a4.545 4.545 0 0 0 4.546 4.545 4.545 4.545 0 0 0 4.545-4.545 4.545 4.545 0 0 0 -4.545-4.546 4.545 4.545 0 0 0 -4.546 4.546" fill="none" transform="translate(579.238 262.122)"></path><path d="m0 4.546a4.545 4.545 0 0 0 4.546 4.545 4.545 4.545 0 0 0 4.545-4.545 4.545 4.545 0 0 0 -4.545-4.546 4.545 4.545 0 0 0 -4.546 4.546" fill="#446ab2" transform="translate(579.238 262.122)"></path><path d="m0 2.448a2.451 2.451 0 0 0 2.448 2.452 2.451 2.451 0 0 0 2.452-2.452 2.451 2.451 0 0 0 -2.452-2.448 2.451 2.451 0 0 0 -2.448 2.448" fill="none" transform="translate(581.336 264.22)"></path><path d="m0 2.448a2.451 2.451 0 0 0 2.448 2.452 2.451 2.451 0 0 0 2.452-2.452 2.451 2.451 0 0 0 -2.452-2.448 2.451 2.451 0 0 0 -2.448 2.448" fill="#446ab2" transform="translate(581.336 264.22)"></path><path d="m0 4.546a4.545 4.545 0 0 0 4.546 4.545 4.545 4.545 0 0 0 4.545-4.545 4.545 4.545 0 0 0 -4.545-4.546 4.545 4.545 0 0 0 -4.546 4.546" fill="none" transform="translate(594.623 273.312)"></path><path d="m0 4.546a4.545 4.545 0 0 0 4.546 4.545 4.545 4.545 0 0 0 4.545-4.545 4.545 4.545 0 0 0 -4.545-4.546 4.545 4.545 0 0 0 -4.546 4.546" fill="#446ab2" transform="translate(594.623 273.312)"></path><path d="m0 2.448a2.451 2.451 0 0 0 2.448 2.452 2.451 2.451 0 0 0 2.452-2.452 2.451 2.451 0 0 0 -2.452-2.448 2.451 2.451 0 0 0 -2.448 2.448" fill="none" transform="translate(596.721 275.41)"></path><path d="m0 2.448a2.451 2.451 0 0 0 2.448 2.452 2.451 2.451 0 0 0 2.452-2.452 2.451 2.451 0 0 0 -2.452-2.448 2.451 2.451 0 0 0 -2.448 2.448" fill="#446ab2" transform="translate(596.721 275.41)"></path><path d="m0 4.546a4.545 4.545 0 0 0 4.546 4.545 4.545 4.545 0 0 0 4.545-4.545 4.545 4.545 0 0 0 -4.545-4.546 4.545 4.545 0 0 0 -4.546 4.546" fill="none" transform="translate(608.61 257.227)"></path><path d="m0 4.546a4.545 4.545 0 0 0 4.546 4.545 4.545 4.545 0 0 0 4.545-4.545 4.545 4.545 0 0 0 -4.545-4.546 4.545 4.545 0 0 0 -4.546 4.546" fill="#446ab2" transform="translate(608.61 257.227)"></path><path d="m0 2.448a2.45 2.45 0 0 0 2.448 2.452 2.45 2.45 0 0 0 2.452-2.452 2.45 2.45 0 0 0 -2.452-2.448 2.45 2.45 0 0 0 -2.448 2.448" fill="none" transform="translate(610.708 259.325)"></path><path d="m0 2.448a2.45 2.45 0 0 0 2.448 2.452 2.45 2.45 0 0 0 2.452-2.452 2.45 2.45 0 0 0 -2.452-2.448 2.45 2.45 0 0 0 -2.448 2.448" fill="#446ab2" transform="translate(610.708 259.325)"></path><path d="m0 2.109 27.726 21.713 8.074-8.073 17.83 12.733 1.554-2.182-19.676-14.049-8 8-25.855-20.251z" fill="none" transform="translate(63.194 312.411)"></path><path d="m0 2.109 27.726 21.713 8.074-8.073 17.83 12.733 1.554-2.182-19.676-14.049-8 8-25.855-20.251z" fill="#446ab2" transform="translate(63.194 312.411)"></path><path d="m7.167 13.351 1.618-6.229 5.456-3.122-14.241-4z" fill="none" transform="translate(56.964 307.961)"></path><g fill="#446ab2"><path d="m7.167 13.351 1.618-6.229 5.456-3.122-14.241-4z" transform="translate(56.964 307.961)"></path><path d="m5.34 2.67a2.67 2.67 0 1 1 -2.67-2.67 2.671 2.671 0 0 1 2.67 2.67" transform="translate(86.336 293.72)"></path><path d="m5.34 2.67a2.67 2.67 0 1 1 -2.67-2.67 2.671 2.671 0 0 1 2.67 2.67" transform="translate(638.173 72.985)"></path><path d="m5.34 2.67a2.67 2.67 0 1 1 -2.67-2.67 2.671 2.671 0 0 1 2.67 2.67" transform="translate(361.364 89.006)"></path><path d="m5.34 2.67a2.67 2.67 0 1 1 -2.67-2.67 2.671 2.671 0 0 1 2.67 2.67" transform="translate(409.427)"></path><path d="m5.34 2.67a2.67 2.67 0 1 1 -2.67-2.67 2.671 2.671 0 0 1 2.67 2.67" transform="translate(473.512 36.492)"></path><path d="m5.34 2.67a2.67 2.67 0 1 1 -2.67-2.67 2.671 2.671 0 0 1 2.67 2.67" transform="translate(132.619 289.269)"></path><path d="m6.553 2.993h-2.425v-2.425a.568.568 0 1 0 -1.135 0v2.425h-2.425a.567.567 0 1 0 0 1.134h2.425v2.426a.568.568 0 0 0 1.135 0v-2.427h2.425a.567.567 0 1 0 0-1.134" transform="translate(388.066 83.666)"></path><path d="m6.553 2.993h-2.425v-2.425a.568.568 0 1 0 -1.135 0v2.425h-2.425a.567.567 0 1 0 0 1.134h2.425v2.426a.568.568 0 0 0 1.135 0v-2.427h2.425a.567.567 0 1 0 0-1.134" transform="translate(129.059 193.143)"></path><path d="m6.553 2.993h-2.425v-2.425a.568.568 0 1 0 -1.135 0v2.425h-2.425a.567.567 0 1 0 0 1.134h2.425v2.426a.568.568 0 0 0 1.135 0v-2.427h2.425a.567.567 0 1 0 0-1.134" transform="translate(58.744 146.86)"></path><path d="m6.553 2.993h-2.425v-2.425a.568.568 0 1 0 -1.135 0v2.425h-2.425a.567.567 0 1 0 0 1.134h2.425v2.426a.568.568 0 0 0 1.135 0v-2.427h2.425a.567.567 0 1 0 0-1.134" transform="translate(626.602 125.498)"></path><path d="m6.553 2.993h-2.425v-2.425a.568.568 0 1 0 -1.135 0v2.425h-2.425a.567.567 0 1 0 0 1.134h2.425v2.426a.568.568 0 0 0 1.135 0v-2.427h2.425a.567.567 0 1 0 0-1.134" transform="translate(316.861 9.791)"></path><path d="m6.553 2.993h-2.425v-2.425a.568.568 0 1 0 -1.135 0v2.425h-2.425a.567.567 0 1 0 0 1.134h2.425v2.426a.568.568 0 0 0 1.135 0v-2.427h2.425a.567.567 0 1 0 0-1.134" transform="translate(9.791 246.547)"></path><path d="m6.553 2.993h-2.425v-2.425a.568.568 0 1 0 -1.135 0v2.425h-2.425a.567.567 0 1 0 0 1.134h2.425v2.426a.568.568 0 0 0 1.135 0v-2.427h2.425a.567.567 0 1 0 0-1.134" transform="translate(525.135 62.304)"></path><path d="m6.553 2.993h-2.425v-2.425a.568.568 0 1 0 -1.135 0v2.425h-2.425a.567.567 0 1 0 0 1.134h2.425v2.426a.568.568 0 0 0 1.135 0v-2.427h2.425a.567.567 0 1 0 0-1.134" transform="translate(123.718 16.911)"></path><path d="m6.553 2.993h-2.425v-2.425a.568.568 0 1 0 -1.135 0v2.425h-2.425a.567.567 0 1 0 0 1.134h2.425v2.426a.568.568 0 0 0 1.135 0v-2.427h2.425a.567.567 0 1 0 0-1.134" transform="translate(48.063 67.645)"></path><path d="m6.553 2.993h-2.425v-2.425a.568.568 0 1 0 -1.135 0v2.425h-2.425a.567.567 0 1 0 0 1.134h2.425v2.426a.568.568 0 0 0 1.135 0v-2.427h2.425a.567.567 0 1 0 0-1.134" transform="translate(582.099 32.042)"></path><path d="m6.553 2.993h-2.425v-2.425a.568.568 0 1 0 -1.135 0v2.425h-2.425a.567.567 0 1 0 0 1.134h2.425v2.426a.568.568 0 0 0 1.135 0v-2.427h2.425a.567.567 0 1 0 0-1.134" transform="translate(0 194.923)"></path><path d="m6.553 2.993h-2.425v-2.425a.568.568 0 1 0 -1.135 0v2.425h-2.425a.567.567 0 1 0 0 1.134h2.425v2.426a.568.568 0 0 0 1.135 0v-2.427h2.425a.567.567 0 1 0 0-1.134" transform="translate(518.905 197.593)"></path><path d="m0 1.78h47.173v-1.78h-47.173z" transform="translate(382.726 212.724)"></path><path d="m0 1.78h23.142v-1.78h-23.142z" transform="translate(381.836 217.175)"></path><path d="m0 1.78h36.492v-1.78h-36.492z" transform="translate(382.726 222.515)"></path><path d="m0 1.78h47.173v-1.78h-47.173z" transform="translate(642.623 303.51)"></path><path d="m0 1.78h23.142v-1.78h-23.142z" transform="translate(642.623 307.961)"></path><path d="m0 1.78h36.492v-1.78h-36.492z" transform="translate(642.623 313.301)"></path><path d="m0 1.78h47.173v-1.78h-47.173z" transform="translate(5.34 281.259)"></path><path d="m0 1.78h23.142v-1.78h-23.142z" transform="translate(5.34 285.709)"></path><path d="m0 1.78h36.492v-1.78h-36.492z" transform="translate(5.34 291.049)"></path></g><g transform="translate(120.158 238.536)"><path d="m16.583 5.468a5.338 5.338 0 0 0 1.348 3.513l-6.544 6.53a6.977 6.977 0 0 0 -4.466-1.628 6.83 6.83 0 0 0 -6.921 6.731 6.828 6.828 0 0 0 6.922 6.732 6.962 6.962 0 0 0 5.6-2.8l6.227 4a5.275 5.275 0 0 0 -.557 3.291 5.6 5.6 0 0 0 6.4 4.589 5.5 5.5 0 0 0 4.716-6.226 5.606 5.606 0 0 0 -6.4-4.586 5.637 5.637 0 0 0 -3.143 1.574l-6.408-4.114a6.55 6.55 0 0 0 .489-2.461 6.577 6.577 0 0 0 -1.274-3.873l6.663-6.648a5.689 5.689 0 0 0 2.976.845 5.549 5.549 0 0 0 5.624-5.47 5.548 5.548 0 0 0 -5.627-5.467 5.548 5.548 0 0 0 -5.625 5.468" fill="none"></path><path d="m16.583 5.468a5.338 5.338 0 0 0 1.348 3.513l-6.544 6.53a6.977 6.977 0 0 0 -4.466-1.628 6.83 6.83 0 0 0 -6.921 6.731 6.828 6.828 0 0 0 6.922 6.732 6.962 6.962 0 0 0 5.6-2.8l6.227 4a5.275 5.275 0 0 0 -.557 3.291 5.6 5.6 0 0 0 6.4 4.589 5.5 5.5 0 0 0 4.716-6.226 5.606 5.606 0 0 0 -6.4-4.586 5.637 5.637 0 0 0 -3.143 1.574l-6.408-4.114a6.55 6.55 0 0 0 .489-2.461 6.577 6.577 0 0 0 -1.274-3.873l6.663-6.648a5.689 5.689 0 0 0 2.976.845 5.549 5.549 0 0 0 5.624-5.47 5.548 5.548 0 0 0 -5.627-5.467 5.548 5.548 0 0 0 -5.625 5.468" fill="#446ab2"></path></g></g><g opacity=".14" transform="translate(391.626 140.319)"><path d="m0 0h33.377v37.382h-33.377z" fill="none" transform="translate(252.412)"></path><path d="m29.372 37.383a4.01 4.01 0 0 1 -4.005-4.005 3.947 3.947 0 0 1 .9-2.5l-5.489-6.756a6.634 6.634 0 0 1 -8.011-.207l-5.657 6.963a3.948 3.948 0 0 1 .9 2.5 4.005 4.005 0 1 1 -4.005-4.005 3.948 3.948 0 0 1 2.469.876l5.635-6.932a6.645 6.645 0 0 1 0-9.248l-5.635-6.934a3.948 3.948 0 0 1 -2.469.876 4.005 4.005 0 1 1 4.006-4.006 3.95 3.95 0 0 1 -.9 2.5l5.657 6.963a6.637 6.637 0 0 1 8.011-.207l5.488-6.761a3.951 3.951 0 0 1 -.9-2.5 4.005 4.005 0 1 1 4.005 4.005 3.957 3.957 0 0 1 -2.47-.876l-5.437 6.69a6.645 6.645 0 0 1 0 9.734l5.437 6.69a3.958 3.958 0 0 1 2.47-.876 4.005 4.005 0 0 1 0 8.011zm0-7.121a3.115 3.115 0 1 0 3.115 3.115 3.119 3.119 0 0 0 -3.115-3.115zm-25.367 0a3.115 3.115 0 1 0 3.115 3.115 3.119 3.119 0 0 0 -3.115-3.115zm12.906-17.356a5.786 5.786 0 1 0 5.789 5.785 5.792 5.792 0 0 0 -5.789-5.785zm12.461-12.016a3.115 3.115 0 1 0 3.115 3.115 3.119 3.119 0 0 0 -3.115-3.115zm-25.367 0a3.115 3.115 0 1 0 3.116 3.115 3.119 3.119 0 0 0 -3.116-3.115z" fill="#446ab2" transform="translate(252.412)"></path><path d="m0 0h33.976v36.733h-33.976z" fill="none" transform="translate(0 95.236)"></path><path d="m0 0h33.976v36.733h-33.976z" fill="none" transform="translate(0 95.236)"></path><g fill="#446ab2"><path d="m21.442 36.733-8.9-3.956v-12.622l-12.542-20.155h33.976l-12.534 20.174v16.558zm-19.842-35.843 11.831 19.01v12.3l7.121 3.166v-15.445l11.823-19.031z" transform="translate(0 95.236)"></path><path d="m0 .89h16.021v-.89h-16.021z" transform="translate(8.981 98.796)"></path><path d="m0 .89h8.9v-.89h-8.9z" transform="translate(12.541 102.356)"></path><path d="m0 .89h3.56v-.89h-3.56z" transform="translate(15.211 105.917)"></path><path d="m0 3.56h3.56v-3.56h-3.56z" transform="translate(14.321 88.115)"></path><path d="m0 3.56h3.56v-3.56h-3.56z" transform="translate(7.201 77.435)"></path><path d="m0 3.56h3.56v-3.56h-3.56z" transform="translate(21.442 77.435)"></path><path d="m0 3.56h3.56v-3.56h-3.56z" transform="translate(17.881 82.775)"></path><path d="m0 3.56h3.56v-3.56h-3.56z" transform="translate(11.651 82.775)"></path><path d="m0 3.56h3.56v-3.56h-3.56z" transform="translate(14.321 77.435)"></path></g></g></g></svg>