<?xml version="1.0" encoding="UTF-8"?>
<!DOCTYPE svg PUBLIC "-//W3C//DTD SVG 1.1//EN" "http://www.w3.org/Graphics/SVG/1.1/DTD/svg11.dtd">
<!-- Creator: CorelDRAW -->
<svg xmlns="http://www.w3.org/2000/svg" xml:space="preserve" width="2048px" height="2048px" style="shape-rendering:geometricPrecision; text-rendering:geometricPrecision; image-rendering:optimizeQuality; fill-rule:evenodd; clip-rule:evenodd"
viewBox="0 0 2048 2048"
 xmlns:xlink="http://www.w3.org/1999/xlink">
 <defs>
  <style type="text/css">
   <![CDATA[
    .fil2 {fill:none}
    .fil0 {fill:#212121;fill-rule:nonzero}
    .fil1 {fill:#66BB6A;fill-rule:nonzero}
   ]]>
  </style>
 </defs>
 <g id="Layer_x0020_1">
  <metadata id="CorelCorpID_0Corel-Layer"/>
  <g id="_475107624">
   <g>
    <path id="_475108776" class="fil0" d="M279.999 311.144l1084.78 0c13.2543,0 24,10.7457 24,24l0 713.878 -48 -48 0 -641.878 -1036.78 0 0 1329.71 1036.78 0 0 -279.285 48 48 0 255.285c0,13.2543 -10.7457,24 -24,24l-1084.78 0c-13.2543,0 -24,-10.7457 -24,-24l0 -1377.71c0,-13.2543 10.7457,-24 24,-24z"/>
    <polygon id="_475108320" class="fil0" points="469.679,1016.35 985.71,1016.35 995.594,1043.62 995.531,1043.64 1003.04,1064.35 469.679,1064.35 "/>
    <polygon id="_475108128" class="fil0" points="469.679,1223.96 1155.17,1223.96 1175.1,1243.89 1175.1,1271.96 469.679,1271.96 "/>
    <polygon id="_475108824" class="fil0" points="469.679,1431.57 1175.1,1431.57 1175.1,1479.57 469.679,1479.57 "/>
    <path id="_475107552" class="fil0" d="M469.679 792.388l481.14 0c-11.0894,5.21811 -20.198,14.6516 -24.6969,27.0721 -2.48622,6.86693 -3.20197,13.9323 -2.47205,20.928l-453.971 0 0 -48z"/>
    <polygon id="_475107360" class="fil0" points="469.679,568.428 1175.1,568.428 1175.1,616.428 469.679,616.428 "/>
   </g>
   <g>
    <path id="_475108008" class="fil1" d="M1031.9 1032.63l136.31 -136.31 -0.0011811 -0.0011811c9.37205,-9.37205 24.5681,-9.37205 33.9402,0l0.0862205 0.0885827 582.737 582.737 0.0011811 -0.0011811c9.37205,9.37205 9.37205,24.5681 0,33.9402l-0.0885827 0.0862205 -136.31 136.31 0.0011811 0.0011811c-9.37205,9.37205 -24.5681,9.37205 -33.9402,0l-0.0862205 -0.0885827 -582.737 -582.737 -0.0011811 0.0011811c-9.37205,-9.37205 -9.37205,-24.5681 0,-33.9402l0.0885827 -0.0862205zm153.279 -85.4032l-102.46 102.46 548.887 548.887 102.46 -102.46 -548.887 -548.887z"/>
    <path id="_475107960" class="fil1" d="M1058.43 1006.1l83.1426 -83.1426 -130.4 -47.2323 47.2571 130.375zm143.711 -75.8351l-136.011 136.011c-2.47677,2.59606 -5.57363,4.67599 -9.17599,5.98111 -12.4606,4.51654 -26.2264,-1.92402 -30.7429,-14.3847l0.0637796 -0.0236221 -76.9276 -212.231c-2.45551,-5.48268 -2.87126,-11.8866 -0.66378,-17.9811 4.513,-12.4618 18.2764,-18.9047 30.7382,-14.3917l-8.17323 22.565 8.1567 -22.5 212.209 76.865c3.8563,1.07008 7.49646,3.11929 10.5284,6.15119 9.37205,9.37205 9.37205,24.5681 0,33.9402l-0.0011811 -0.0011811z"/>
   </g>
  </g>
 </g>
 <rect class="fil2" width="2048" height="2048"/>
</svg>
