<svg xmlns="http://www.w3.org/2000/svg" height="50" width="50" viewBox="0 0 25 25"><defs><style>.cls-1{fill:#231f20;}</style></defs><g id="phone"><path class="cls-1" d="M23.5,2h-13a.5.5,0,0,0-.5.5v17a.5.5,0,0,0,.5.5h.82a2.23,2.23,0,0,1-.44,2.44A2.18,2.18,0,0,1,9.17,23,2,2,0,0,1,8,22.49a2.26,2.26,0,0,1-.21-2.6A.52.52,0,0,0,8,19.5V16a.49.49,0,0,0-.39-.48L6.3,15.17c-1.11-.26-1.3-1-1.3-2.63v-3c0-1.58.2-2.39,1.36-2.64l1.25-.27A.49.49,0,0,0,8,6.1V2.5A.5.5,0,0,0,7.5,2H4.89A3.82,3.82,0,0,0,1,5.72V16.28A3.82,3.82,0,0,0,4.89,20H6.68a3.1,3.1,0,0,0,.64,3.21A3.14,3.14,0,0,0,9.06,24l.33,0a3.25,3.25,0,0,0,2.17-.85A3.14,3.14,0,0,0,12.37,20H23.5a.5.5,0,0,0,.5-.5V2.5A.5.5,0,0,0,23.5,2ZM2,16.28V5.72A2.81,2.81,0,0,1,4.89,3H7V5.7l-.86.19C4,6.35,4,8.33,4,9.5v3c0,1.24,0,3.12,2.08,3.6l.92.22V19H4.89A2.81,2.81,0,0,1,2,16.28ZM23,19H11V3H23Z"/><path class="cls-1" d="M13.5,9h7a.5.5,0,0,0,.5-.5v-3a.5.5,0,0,0-.5-.5h-7a.5.5,0,0,0-.5.5v3A.5.5,0,0,0,13.5,9ZM14,6h6V8H14Z"/><path class="cls-1" d="M13.5,11h1a.5.5,0,0,0,0-1h-1a.5.5,0,0,0,0,1Z"/><path class="cls-1" d="M17.5,10h-1a.5.5,0,0,0,0,1h1a.5.5,0,0,0,0-1Z"/><path class="cls-1" d="M20.5,10h-1a.5.5,0,0,0,0,1h1a.5.5,0,0,0,0-1Z"/><path class="cls-1" d="M13.5,14h1a.5.5,0,0,0,0-1h-1a.5.5,0,0,0,0,1Z"/><path class="cls-1" d="M17.5,13h-1a.5.5,0,0,0,0,1h1a.5.5,0,0,0,0-1Z"/><path class="cls-1" d="M20.5,13h-1a.5.5,0,0,0,0,1h1a.5.5,0,0,0,0-1Z"/><path class="cls-1" d="M13.5,17h1a.5.5,0,0,0,0-1h-1a.5.5,0,0,0,0,1Z"/><path class="cls-1" d="M17.5,16h-1a.5.5,0,0,0,0,1h1a.5.5,0,0,0,0-1Z"/><path class="cls-1" d="M20.5,16h-1a.5.5,0,0,0,0,1h1a.5.5,0,0,0,0-1Z"/></g></svg>