<?xml version="1.0" encoding="utf-8"?>
<!-- Generator: Adobe Illustrator 16.0.0, SVG Export Plug-In . SVG Version: 6.00 Build 0)  -->
<!DOCTYPE svg PUBLIC "-//W3C//DTD SVG 1.1//EN" "http://www.w3.org/Graphics/SVG/1.1/DTD/svg11.dtd">
<svg version="1.1" id="Layer_1" xmlns="http://www.w3.org/2000/svg" xmlns:xlink="http://www.w3.org/1999/xlink" x="0px" y="0px"
	 width="128px" height="128px" viewBox="0 0 128 128" enable-background="new 0 0 128 128" xml:space="preserve">
<g>
	<g>
		<path fill="#282D33" d="M117.209,54.521h-4V38.679c0-3.064-2.455-5.558-5.473-5.558h-8.271v-4h8.271
			c5.224,0,9.473,4.287,9.473,9.558V54.521z"/>
	</g>
	<g>
		<path fill="#282D33" d="M14.792,54.521h-4V38.679c0-5.271,4.25-9.558,9.474-9.558h5.53v4h-5.53c-3.019,0-5.474,2.493-5.474,5.558
			V54.521z"/>
	</g>
	<g>
		<rect x="99.962" y="30.721" fill="#282D33" width="4" height="14.436"/>
	</g>
	<g>
		<polygon fill="#282D33" points="28.037,45.156 24.037,45.156 24.037,4.436 81.855,4.436 81.855,8.436 28.037,8.436 		"/>
	</g>
	<g>
		<path fill="#282D33" d="M109.203,28.854H85.782V5.165L109.203,28.854z M89.782,24.854h9.841L89.782,14.9V24.854z"/>
	</g>
	<g>
		<path fill="#282D33" d="M124.432,105.436h-5.466v-4h4.96V56.048H4.075v45.388h4.601v4H3.57c-1.927,0-3.495-1.576-3.495-3.513
			V55.561c0-1.937,1.568-3.513,3.495-3.513h120.862c1.927,0,3.494,1.576,3.494,3.513v46.362
			C127.926,103.859,126.358,105.436,124.432,105.436z"/>
	</g>
	<g>
		<path fill="#282D33" d="M116.807,96.376h-4V79.117H15.193v17.259h-4V78.63c0-1.937,1.567-3.513,3.493-3.513h98.623
			c1.929,0,3.498,1.576,3.498,3.513V96.376z"/>
	</g>
	<g>
		<rect x="58.8" y="62.384" fill="#282D33" width="10.399" height="4"/>
	</g>
	<g>
		<rect x="12.187" y="62.384" fill="#282D33" width="6.498" height="4"/>
	</g>
	<g>
		<rect x="99.506" y="62.384" fill="#282D33" width="6.498" height="4"/>
	</g>
	<g>
		<rect x="109.475" y="62.384" fill="#282D33" width="6.5" height="4"/>
	</g>
	<g>
		<rect x="37.327" y="20.41" fill="#282D33" width="25.776" height="4"/>
	</g>
	<g>
		<rect x="37.327" y="30.14" fill="#282D33" width="32.373" height="4"/>
	</g>
	<g>
		<rect x="37.327" y="39.87" fill="#282D33" width="17.735" height="4"/>
	</g>
	<g>
		<path fill="#282D33" d="M124.266,123.564H3.734c-2.059,0-3.734-1.684-3.734-3.754l0.052-2.378
			c0.109-0.772,1.514-3.473,14.052-27.564l3.548,1.846c-4.991,9.591-12.364,23.778-13.618,26.241l-0.029,1.609H124v-1.606
			l-13.652-26.244l3.549-1.846L128,116.979v2.831C128,121.881,126.325,123.564,124.266,123.564z"/>
	</g>
	<g>
		<polygon fill="#282D33" points="114.438,111.9 78.881,111.9 78.881,107.9 108.425,107.9 102.146,92.928 25.753,93.16 
			19.576,107.9 48.761,107.9 48.761,111.9 13.563,111.9 23.089,89.168 104.803,88.92 		"/>
	</g>
	<g>
		<path fill="#282D33" d="M80.861,114.459h-4v-5.441H51.138v5.441h-4v-5.686c0-2.071,1.675-3.756,3.734-3.756h26.252
			c2.061,0,3.737,1.685,3.737,3.756V114.459z"/>
	</g>
	<g>
		<rect x="12.972" y="88.408" fill="#282D33" width="102.055" height="4"/>
	</g>
</g>
</svg>
