<?xml version="1.0" encoding="utf-8"?>
<!-- Generator: Adobe Illustrator 24.0.0, SVG Export Plug-In . SVG Version: 6.00 Build 0)  -->
<svg version="1.1" id="Layer_2" xmlns="http://www.w3.org/2000/svg" xmlns:xlink="http://www.w3.org/1999/xlink" x="0px" y="0px"
	 viewBox="0 0 512 512" enable-background="new 0 0 512 512" xml:space="preserve">
<g>
	<g>
		<path fill="#6E83B7" d="M50,247.389H10c0-63.409,24.693-123.022,69.529-167.859C124.366,34.693,183.98,10,247.389,10v40
			C138.548,50,50,138.548,50,247.389z"/>
	</g>
	<g>
		<path fill="#6E83B7" d="M119.257,247.389h-40c0-92.708,75.424-168.132,168.132-168.132v40
			C176.736,119.257,119.257,176.736,119.257,247.389z"/>
	</g>
	<g>
		<path fill="#6E83B7" d="M188.513,247.389h-40c0-54.52,44.355-98.875,98.875-98.875v40
			C214.925,188.513,188.513,214.925,188.513,247.389z"/>
	</g>
	<g>
		<g>
			<path fill="#6E83B7" d="M318.901,318.901c60.399-60.399,62.009-105.496,62.009-105.496l-41.071-41.071L444.53,67.642
				l37.452,37.452c13.929,13.929,21.176,33.185,19.868,52.84c-2.891,43.448-23.755,124.181-121.745,222.171
				S201.381,498.958,157.934,501.849c-19.655,1.308-38.911-5.939-52.84-19.868L67.642,444.53l104.691-104.691l41.071,41.071
				C213.404,380.91,258.502,379.299,318.901,318.901z"/>
		</g>
		<g>
			
				<rect x="20.213" y="363.021" transform="matrix(0.7071 -0.7071 0.7071 0.7071 -237.1691 187.6323)" fill="#EDEFF1" width="175.389" height="34.167"/>
		</g>
		<g>
			
				<rect x="292.41" y="90.824" transform="matrix(-0.7071 0.7071 -0.7071 -0.7071 725.1813 -84.5645)" fill="#EDEFF1" width="175.389" height="34.167"/>
		</g>
	</g>
</g>
</svg>
